<svg width="70" height="70" fill="none" xmlns="http://www.w3.org/2000/svg"><path d="M64.832 36.735H4.759a3.558 3.558 0 00-3.555 3.555v23.79a3.559 3.559 0 003.555 3.556h60.073a3.559 3.559 0 003.555-3.555V40.29a3.559 3.559 0 00-3.555-3.555zM45.166 52.779h-20.39v-6.972h20.39v6.972zm-20.39 1.641h20.39v11.575h-20.39V54.42zm20.39-10.254h-20.39v-5.79h20.39v5.79zM2.845 64.081V40.29a1.917 1.917 0 011.914-1.914h18.377v27.619H4.759a1.916 1.916 0 01-1.914-1.914zm63.9 0a1.917 1.917 0 01-1.913 1.914H46.806v-27.62h18.026a1.916 1.916 0 011.914 1.915v23.79zM45.986 19.805h21.132a1.095 1.095 0 001.093-1.094V3.277a1.095 1.095 0 00-1.093-1.094H2.123A1.095 1.095 0 001.03 3.277V18.71a1.095 1.095 0 001.094 1.094h21.132a.82.82 0 00.82-.82v-4.436h5.139v4.28l-2.531 6.437a1.095 1.095 0 001.017 1.493h13.917a1.094 1.094 0 001.018-1.494l-2.531-6.437v-4.28h5.061v4.437a.82.82 0 00.82.82zm20.585-1.64H46.806V3.822H66.57v14.341zM2.67 3.822h19.765v14.341H2.67V3.824zM28.503 25.12l2.09-5.315h8.132l2.09 5.315H28.502zm9.96-6.955h-7.61v-3.616h7.61v3.616zm-14.387-5.256V3.823h21.09v9.085h-21.09z" fill="#002B45"/><path d="M19.3 40.016H7.813a.82.82 0 100 1.64H19.3a.82.82 0 100-1.64zm43.57 0H51.38a.82.82 0 100 1.64h11.49a.82.82 0 100-1.64zm-46.527-24.89H8.928a.82.82 0 000 1.64h7.414a.82.82 0 000-1.64zm37.434 1.64h7.415a.82.82 0 000-1.64h-7.415a.82.82 0 000 1.64z" fill="#002B45"/></svg>