<svg width="70" height="61" fill="none" xmlns="http://www.w3.org/2000/svg"><g clip-path="url(#clip0_161_1582)" fill="#002B45"><path d="M68.45 60.993H6.903a.778.778 0 010-1.555h60.77V8.543h-55.42a.778.778 0 010-1.555h56.199c.429 0 .777.348.777.777v52.45c0 .43-.348.778-.777.778z"/><path d="M12.253 55.642a.778.778 0 01-.778-.778V5.802A4.58 4.58 0 006.9 1.227a4.58 4.58 0 00-4.573 4.575v49.062a.778.778 0 01-1.556 0V5.802c0-3.38 2.75-6.13 6.13-6.13a6.137 6.137 0 016.131 6.13v49.062a.78.78 0 01-.779.778z"/><path d="M6.902 60.993c-3.38 0-6.13-2.75-6.13-6.13s2.75-6.13 6.13-6.13 6.13 2.75 6.13 6.13a.778.778 0 01-1.555 0 4.58 4.58 0 00-4.575-4.575 4.58 4.58 0 00-4.575 4.575 4.58 4.58 0 004.575 4.575.778.778 0 010 1.555zm56.7-12.461H17.103a.778.778 0 01-.778-.778v-9.749c0-.429.349-.778.778-.778h46.499c.429 0 .777.349.777.778v9.749c0 .43-.348.778-.777.778zM17.88 46.976h44.943v-8.193H17.88v8.193z"/><path d="M58.563 48.532a.778.778 0 01-.778-.778v-4.707a.778.778 0 011.556 0v4.707c0 .43-.349.778-.778.778zm-6.071 0a.778.778 0 01-.778-.778v-2.353a.778.778 0 011.555 0v2.353c0 .43-.346.778-.777.778zm-6.07 0a.778.778 0 01-.777-.778v-4.707a.778.778 0 011.555 0v4.707c0 .43-.348.778-.778.778zm-6.07 0a.778.778 0 01-.778-.778v-2.353a.778.778 0 011.556 0v2.353c0 .43-.349.778-.778.778zm-6.072 0a.778.778 0 01-.777-.778v-4.707a.778.778 0 011.556 0v4.707c0 .43-.349.778-.778.778zm-6.069 0a.778.778 0 01-.777-.778v-2.353a.778.778 0 011.555 0v2.353c0 .43-.348.778-.778.778zm-6.071 0a.778.778 0 01-.779-.778v-4.707a.778.778 0 011.556 0v4.707c0 .43-.347.778-.778.778zm35.228-17.085h-.044a3.049 3.049 0 01-3.008-2.94H26.389a3.054 3.054 0 01-5.178 2.077l-2.894-2.803a3.034 3.034 0 01-1.067-2.321 3.056 3.056 0 011.064-2.338l2.898-2.808a3.054 3.054 0 015.177 2.077h27.927a3.053 3.053 0 015.178-2.075l2.897 2.806c.642.546 1.008 1.252 1.059 2.042.056.882-.302 1.81-.98 2.542a.692.692 0 01-.068.065l-.013.011-2.896 2.806a3.041 3.041 0 01-2.125.86zm-31.853-4.495h29.677a.78.78 0 01.745 1.003 1.503 1.503 0 00.358 1.482c.278.287.653.448 1.053.453.407.006.777-.145 1.064-.423l2.916-2.827a.294.294 0 00.031-.03c.372-.414.568-.904.54-1.352-.023-.37-.2-.694-.527-.966-.014-.013-.03-.025-.042-.038l-2.917-2.826a1.496 1.496 0 00-2.476 1.51.777.777 0 01-.745 1.003H25.515a.782.782 0 01-.626-.314.77.77 0 01-.118-.689 1.503 1.503 0 00-.358-1.482 1.5 1.5 0 00-2.117-.03l-2.918 2.827a1.506 1.506 0 00-.572 1.198c.001.452.194.87.528 1.147a.562.562 0 01.046.04l2.915 2.826a1.497 1.497 0 002.476-1.51.776.776 0 01.744-1.002z"/></g><defs><clipPath id="clip0_161_1582"><path fill="#fff" d="M0 0h70v60.667H0z"/></clipPath></defs></svg>