<svg width="62" height="62" fill="none" xmlns="http://www.w3.org/2000/svg"><path d="M35.225 24.025h-6.163v-6.162a2.545 2.545 0 00-2.55-2.55 2.545 2.545 0 00-2.55 2.55v6.162H17.8a2.545 2.545 0 00-2.55 2.55 2.545 2.545 0 002.55 2.55h6.162v6.163a2.545 2.545 0 002.55 2.55 2.545 2.545 0 002.55-2.55v-6.163h6.163a2.545 2.545 0 002.55-2.55c0-1.412-1.15-2.55-2.55-2.55z" fill="#fff"/><path d="M26.525 47.588c-11.612 0-21.025-9.4-21.025-21.013 0-11.612 9.412-21.012 21.025-21.012 11.613 0 21.013 9.412 21.013 21.012s-9.413 21.013-21.013 21.013zm34.35 9.75L46.712 43.175a26.055 26.055 0 005.95-16.6c0-14.437-11.7-26.15-26.15-26.15S.375 12.138.375 26.575c0 14.438 11.7 26.15 26.15 26.15a26.01 26.01 0 0016.587-5.938L57.275 60.95c.65.662 2.638.987 3.613 0 .987-1 .987-2.612-.013-3.612z" fill="#fff"/></svg>