<svg width="70" height="70" fill="none" xmlns="http://www.w3.org/2000/svg"><path d="M5.797 70H60.63a5.612 5.612 0 005.605-5.606V52.848h.701a2.874 2.874 0 002.872-2.871V36.635a2.874 2.874 0 00-2.871-2.871h-.701V22.217a5.612 5.612 0 00-5.605-5.606h-3.265L53.61 2.597A3.507 3.507 0 0049.32.119L7.51 11.322a3.508 3.508 0 00-2.477 4.291l.273 1.022A5.613 5.613 0 00.19 22.217v42.177A5.612 5.612 0 005.797 70zm62.371-33.365v13.342a1.232 1.232 0 01-1.23 1.23h-12.97a7.901 7.901 0 010-15.803h12.97a1.232 1.232 0 011.23 1.23zm-12.5-20.024H30.472l23.508-6.298 1.688 6.298zM6.806 13.776a1.849 1.849 0 011.13-.87L49.745 1.705a1.865 1.865 0 012.281 1.317l1.53 5.707-29.422 7.883H7l-.381-1.423a1.85 1.85 0 01.187-1.412zm-4.974 8.44a3.97 3.97 0 013.965-3.964H60.63a3.97 3.97 0 013.965 3.965v11.547H53.967a9.542 9.542 0 100 19.083h10.629v11.547a3.97 3.97 0 01-3.965 3.965H5.797a3.97 3.97 0 01-3.965-3.965V22.217zm60.785 24.688a3.597 3.597 0 100-7.195 3.597 3.597 0 000 7.194zm0-5.555a1.957 1.957 0 110 3.913 1.957 1.957 0 010-3.913zM11.143 59.942a.82.82 0 01.82-.82h19.14a.82.82 0 110 1.64h-19.14a.822.822 0 01-.821-.82z" fill="#fff"/></svg>