<svg width="531" height="562" fill="none" xmlns="http://www.w3.org/2000/svg"><path d="M69.14 620.64v-2H21.26c-10.338 0-18.73-8.409-18.73-18.793v-89.086c0-10.384 8.392-18.792 18.73-18.792h47.88V440.47H21.26c-10.338 0-18.73-8.409-18.73-18.793v-89.086c0-10.384 8.392-18.793 18.73-18.793h47.88V20.793C69.14 10.408 77.532 2 87.87 2h222.038C430.416 2 528.47 100.344 528.47 221.235c0 121.085-97.657 219.235-218.562 219.235H195.415v51.5h136.697c10.338 0 18.729 8.408 18.729 18.793v89.086c0 10.384-8.391 18.792-18.729 18.792H195.415v70.292c0 10.384-8.39 18.793-18.73 18.793H87.87c-10.338 0-18.73-8.409-18.73-18.793V620.64zm37.461 47.5v2h51.356v-70.293c0-10.384 8.392-18.793 18.73-18.793h136.695v-51.5H176.685c-10.338 0-18.729-8.408-18.729-18.793v-89.084c0-10.384 8.391-18.793 18.729-18.793h133.223c100.022 0 181.103-81.167 181.103-181.649 0-100.158-81.235-181.65-181.103-181.65H106.601v293.006c0 10.384-8.392 18.793-18.73 18.793H39.99v51.5h47.88c10.338 0 18.73 8.409 18.73 18.793v89.086c0 10.384-8.392 18.792-18.73 18.792H39.99v51.501h47.88c10.338 0 18.73 8.408 18.73 18.793v68.291z" stroke="#002B45" stroke-width="4"/></svg>