<svg width="70" height="70" fill="none" xmlns="http://www.w3.org/2000/svg"><path d="M69.366 17.44l-7.98-5.067V1.367A1.365 1.365 0 0060.02 0H49.083c-.755 0-1.367.612-1.367 1.367v11.006l-7.98 5.066a1.385 1.385 0 00-.633 1.155v5.468c0 .755.612 1.368 1.367 1.368h28.164c.755 0 1.367-.613 1.367-1.368v-5.468a1.38 1.38 0 00-.634-1.154zm-19.887-2.948h10.143l4.307 2.735H45.173l4.306-2.735zm9.173-11.758v9.024H50.45V2.734h8.203zm8.614 19.961h-25.43v-2.734h25.43v2.734zM1.367 25.43H35c.755 0 1.367-.613 1.367-1.367V1.366C36.367.612 35.755 0 35 0H1.367C.612 0 0 .612 0 1.367v22.695c0 .755.612 1.368 1.367 1.368zm32.266-2.735H19.55V2.735h14.082v19.96zM2.734 2.735h14.082v19.96H2.734V2.735z" fill="#002B45"/><path d="M12.715 8.203c-.755 0-1.367.612-1.367 1.367v6.29a1.367 1.367 0 002.734 0V9.57c0-.755-.612-1.367-1.367-1.367zm10.937 9.024c.755 0 1.367-.613 1.367-1.368V9.57a1.367 1.367 0 00-2.734 0v6.29c0 .754.612 1.367 1.367 1.367zM40.469 50.86c-.755 0-1.367.612-1.367 1.367v10.937c0 .755.612 1.367 1.367 1.367h22.695c.755 0 1.367-.612 1.367-1.367V52.227c0-.755-.612-1.368-1.367-1.368H40.47zm21.328 10.937H41.836v-8.203h19.96v8.203zM20.918 50.86h-5.469a1.367 1.367 0 000 2.734h5.469a1.367 1.367 0 000-2.735zm0 10.937h-5.469a1.367 1.367 0 000 2.734h5.469a1.367 1.367 0 000-2.734zM35 33.633a4.106 4.106 0 01-4.102-4.102 1.367 1.367 0 00-2.734 0 4.106 4.106 0 01-4.102 4.102 1.367 1.367 0 000 2.734 4.106 4.106 0 014.102 4.102 1.367 1.367 0 002.734 0A4.106 4.106 0 0135 36.367a1.367 1.367 0 000-2.734zm-5.469 2.739A6.891 6.891 0 0028.16 35a6.86 6.86 0 001.372-1.372c.39.52.853.982 1.372 1.372a6.86 6.86 0 00-1.372 1.372zm22.285-8.208c-.755 0-1.367.612-1.367 1.367v1.367h-1.367a1.367 1.367 0 000 2.735h1.367V35a1.367 1.367 0 002.735 0v-1.367h1.367a1.367 1.367 0 000-2.735h-1.367v-1.367c0-.755-.613-1.367-1.368-1.367zM13.125 41.836c.755 0 1.367-.612 1.367-1.367v-1.367h1.367a1.367 1.367 0 000-2.735h-1.367V35a1.367 1.367 0 00-2.734 0v1.367H10.39a1.367 1.367 0 000 2.735h1.367v1.367c0 .755.612 1.367 1.367 1.367zM18.184 70a1.367 1.367 0 100-2.734 1.367 1.367 0 000 2.734z" fill="#002B45"/><path d="M68.633 45.39H64.53v-4.1c0-.756-.612-1.368-1.367-1.368H60.43a1.367 1.367 0 000 2.734h1.367v2.735H47.715v-2.735h1.367a1.367 1.367 0 000-2.734h-2.734c-.755 0-1.367.612-1.367 1.367v4.102H1.367A1.366 1.366 0 000 46.758v21.875C0 69.388.612 70 1.367 70h10.664a1.367 1.367 0 000-2.734H2.734v-8.204h30.899v8.204h-9.297a1.367 1.367 0 000 2.734h44.297c.755 0 1.367-.612 1.367-1.367V46.758c0-.755-.612-1.367-1.367-1.367zM2.734 56.329v-8.203h30.899v8.203H2.734zm64.532 10.938H36.367V48.125h30.899v19.14z" fill="#002B45"/></svg>