<svg width="70" height="66" fill="none" xmlns="http://www.w3.org/2000/svg"><path d="M68.87 9.667H35.56a1.167 1.167 0 000 2.333h32.142v51.182h-9.147a11.305 11.305 0 00-.256-1.902h5.646a1.17 1.17 0 001.167-1.167V15.08a1.17 1.17 0 00-1.167-1.167H35.561a1.17 1.17 0 00-1.166 1.167v17.698a1.17 1.17 0 001.166 1.167h.665a9.171 9.171 0 019.089 7.992H35.56a1.162 1.162 0 00-1.166 1.166v15.844H12.893V43.103a1.167 1.167 0 10-2.334 0v17.01a1.17 1.17 0 001.167 1.167h34.172v1.902H7.97v-29.89a1.167 1.167 0 00-2.334 0v31.056a1.17 1.17 0 001.167 1.167h40.262a1.164 1.164 0 001.166-1.167l.012-9.741a9.172 9.172 0 017.991 9.088v.665a1.16 1.16 0 001.167 1.155H68.87a1.17 1.17 0 001.167-1.167V10.833a1.164 1.164 0 00-1.166-1.166zM47.076 52.203a1.17 1.17 0 00-1.166 1.167l-.012 5.577h-9.17V44.27h9.823a1.164 1.164 0 001.167-1.167 11.493 11.493 0 00-10.99-11.48V16.247h26.051v42.7h-5.25a11.47 11.47 0 00-10.453-6.744zM16.36 23.8a7.062 7.062 0 01-6.446-9.722 1.166 1.166 0 012.143.922c-1.89 4.394 3.629 8.391 7.27 5.398a4.698 4.698 0 00-3.502-8.236 1.168 1.168 0 11-.276-2.318A7.002 7.002 0 1116.36 23.8zm0 16.572a1.167 1.167 0 01-1.043-.645l-3.613-7.238a16.344 16.344 0 1120.849-17.78A16.338 16.338 0 0121.11 32.422l-3.707 7.304a1.167 1.167 0 01-1.044.645zM16.342 2.81a13.83 13.83 0 00-9.313 3.566 13.995 13.995 0 005.261 23.815 2.485 2.485 0 011.5 1.254l2.57 5.147 2.568-5.144a2.49 2.49 0 011.502-1.258 14.01 14.01 0 009.807-15.194A14.035 14.035 0 0017.956 2.9a14.51 14.51 0 00-1.614-.09z" fill="#002B45"/></svg>