<svg width="68" height="68" fill="none" xmlns="http://www.w3.org/2000/svg"><path d="M64.624 50.844V7.203c0-3.573-2.807-6.38-6.38-6.38H9.754c-3.572 0-6.38 2.807-6.38 6.38v43.64c-1.53.511-2.552 2.042-2.552 3.573 0 1.532 1.021 3.063 2.552 3.573v2.808c0 3.573 2.808 6.38 6.38 6.38h48.49c3.573 0 6.38-2.807 6.38-6.38v-2.808c1.532-.51 2.552-2.041 2.552-3.572 0-1.532-1.02-3.063-2.552-3.573zM5.926 7.203c0-2.042 1.787-3.828 3.829-3.828h48.49c2.04 0 3.827 1.786 3.827 3.828v6.38H5.926v-6.38zm0 8.932h56.146v34.453H59.52v-7.4c.766-1.787 1.276-3.574 1.276-5.36 0-1.531-.51-3.318-1.276-5.104v-12.76c0-1.532-1.02-2.553-2.552-2.553H11.031c-1.532 0-2.552 1.021-2.552 2.552V32.47c-.766 1.786-1.277 3.572-1.277 5.359 0 1.786.51 3.828 1.277 5.36v7.4H5.926V16.135zm52.318 21.693c0 5.614-4.594 10.208-10.208 10.208-5.615 0-10.209-4.593-10.209-10.208 0-5.104 3.829-9.443 8.678-9.953.51-1.021.765-1.787 1.276-2.808-2.808 0-5.36 1.021-7.657 2.553-2.297-1.787-4.849-2.553-7.656-2.553-2.297 0-4.594.766-6.38 1.787-2.042-1.02-4.083-1.787-6.38-1.787-3.573 0-6.636 1.532-8.933 3.573v-8.677h45.938v7.401c.765 1.532 1.276 3.063 1.276 4.084 0 1.02-.255 2.041-.766 3.062.766 1.021 1.021 2.297 1.021 3.318zm-38.281 0c0 3.573 1.531 6.89 4.083 9.443-1.276.51-2.807.765-4.083.765-5.615 0-10.208-4.593-10.208-10.208S14.348 27.62 19.963 27.62c1.531 0 2.807.255 4.083.765-2.552 2.552-4.083 5.87-4.083 9.443zm12.76-10.208c2.042 0 4.084.765 5.87 1.786-2.042 2.297-3.318 5.104-3.318 8.422 0 3.318 1.276 6.125 3.318 8.422-1.786 1.276-3.573 1.786-5.87 1.786-5.614 0-10.208-4.593-10.208-10.208S27.109 27.62 32.723 27.62zM11.031 47.016c2.296 2.296 5.359 3.572 8.932 3.572 2.297 0 4.338-.51 6.38-1.786 1.787 1.02 4.083 1.786 6.38 1.786 2.808 0 5.615-1.02 7.657-2.552 2.041 1.532 4.848 2.552 7.656 2.552 3.573 0 6.635-1.53 8.932-3.572v3.572H11.031v-3.572zm51.041 13.78c0 2.042-1.786 3.829-3.828 3.829H9.754c-2.041 0-3.828-1.787-3.828-3.828v-2.552H22.77c.51 2.807 3.063 5.104 6.125 5.104h10.208c3.063 0 5.615-2.297 6.125-5.104h16.844v2.552zm-36.75-2.551h17.354c-.51 1.53-2.041 2.552-3.573 2.552H28.895c-1.786 0-3.062-1.021-3.573-2.552zm38.026-2.552H4.65c-.765 0-1.276-.51-1.276-1.276s.51-1.276 1.276-1.276h58.698c.766 0 1.276.51 1.276 1.276 0 .765-.51 1.276-1.276 1.276z" fill="#002B45"/></svg>