<svg width="70" height="70" fill="none" xmlns="http://www.w3.org/2000/svg"><g clip-path="url(#clip0_187_2191)" fill="#002B45"><path d="M35 38.556c-.76 0-1.377.616-1.377 1.376v8.435c0 .76.616 1.376 1.376 1.376h5.325a1.376 1.376 0 100-2.752h-3.949v-7.06c0-.76-.616-1.375-1.376-1.375z"/><path d="M63.32 6.756H57.1V5.122c0-2.786-2.272-5.054-5.064-5.054-2.792 0-5.063 2.268-5.063 5.054v1.634h-6.91V5.122c0-2.786-2.271-5.054-5.063-5.054s-5.063 2.268-5.063 5.054v1.634h-6.91V5.122c0-2.786-2.271-5.054-5.063-5.054-2.794 0-5.067 2.268-5.067 5.054v1.634H6.68C2.997 6.756 0 9.746 0 13.423v17.27a1.376 1.376 0 002.752 0V23.5h64.496v28.865a3.926 3.926 0 01-3.929 3.916h-8.211a21.41 21.41 0 001.507-7.914c0-11.891-9.696-21.565-21.615-21.565-11.919 0-21.615 9.674-21.615 21.565 0 2.793.534 5.462 1.507 7.914H6.681a3.926 3.926 0 01-3.929-3.916v-9.143a1.376 1.376 0 00-2.752 0v9.143c0 3.677 2.997 6.668 6.68 6.668h9.539C19.945 65.538 26.967 69.932 35 69.932s15.055-4.394 18.781-10.9h9.538c3.684 0 6.681-2.99 6.681-6.667V13.423c0-3.676-2.997-6.667-6.68-6.667zM35 67.18c-10.401 0-18.863-8.44-18.863-18.813S24.599 29.554 35 29.554s18.863 8.44 18.863 18.813S45.401 67.18 35 67.18zM49.725 5.122a2.309 2.309 0 012.311-2.302 2.309 2.309 0 012.311 2.302v6.02a2.31 2.31 0 01-2.311 2.301 2.31 2.31 0 01-2.311-2.302V5.122zm-17.036 0a2.309 2.309 0 012.31-2.302 2.309 2.309 0 012.312 2.302v6.02a2.31 2.31 0 01-2.311 2.3 2.309 2.309 0 01-2.311-2.302V5.122zm-17.04 0a2.311 2.311 0 012.315-2.302 2.309 2.309 0 012.311 2.302v6.02a2.31 2.31 0 01-2.311 2.301 2.311 2.311 0 01-2.315-2.302V5.122zM2.752 20.747v-7.324a3.926 3.926 0 013.929-3.915h6.216v1.634c0 2.786 2.273 5.053 5.067 5.053 2.792 0 5.063-2.267 5.063-5.053V9.508h6.91v1.634c0 2.786 2.271 5.053 5.063 5.053s5.063-2.267 5.063-5.053V9.508h6.91v1.634c0 2.786 2.271 5.053 5.063 5.053s5.063-2.267 5.063-5.053V9.508h6.22a3.926 3.926 0 013.929 3.915v7.324H2.752z"/><path d="M1.376 38.345c.76 0 1.376-.616 1.376-1.376v-.028a1.376 1.376 0 00-2.752 0v.028c0 .76.616 1.376 1.376 1.376zm49.294 7.843a1.377 1.377 0 00-2.726.38c.684 4.913-1.546 9.87-5.68 12.63a13.022 13.022 0 01-7.246 2.194c-4.22 0-8.368-2.03-10.885-5.782a12.92 12.92 0 01-1.953-9.772 12.956 12.956 0 015.553-8.305c4.147-2.763 9.604-2.918 13.903-.393a1.377 1.377 0 001.394-2.373 15.856 15.856 0 00-16.824.477 15.69 15.69 0 00-6.726 10.059c-.82 4.132.02 8.336 2.367 11.84 3.047 4.542 8.067 7 13.176 6.999 3.02 0 6.073-.86 8.767-2.655a15.773 15.773 0 006.88-15.298z"/><path d="M45.874 41.144a1.375 1.375 0 001.908.384c.633-.42.805-1.275.384-1.907l-.016-.024a1.376 1.376 0 00-2.292 1.523l.016.024z"/></g><defs><clipPath id="clip0_187_2191"><path fill="#fff" d="M0 0h70v70H0z"/></clipPath></defs></svg>