<svg width="70" height="70" fill="none" xmlns="http://www.w3.org/2000/svg"><path d="M69.366 32.925a1.025 1.025 0 00-1.12.223l-3.077 3.087v-20.99c0-.569-.46-1.03-1.028-1.03h-7.894l2.866-2.875.001-.002 2.761-2.77a3.128 3.128 0 00.918-2.222c0-.84-.326-1.629-.918-2.222L58.682.92A3.108 3.108 0 0056.467 0c-.837 0-1.623.327-2.215.92l-2.763 2.772-3.338 3.349-7.15 7.173H9.107V4.017c0-.569-.46-1.03-1.027-1.03C3.625 2.987 0 6.623 0 11.094v43.779c0 .076.009.15.024.221a7.774 7.774 0 002.327 4.997 7.725 7.725 0 005.432 2.217h31.396l-5.913 5.932a1.033 1.033 0 00.726 1.76h34.98A1.03 1.03 0 0070 68.97V33.876c0-.417-.25-.793-.634-.953zM55.706 2.378a1.077 1.077 0 011.523 0l3.193 3.204c.42.421.42 1.107 0 1.529l-2.035 2.042-4.718-4.732 2.036-2.043zm-3.49 3.5l4.717 4.733-1.885 1.891-4.717-4.732 1.885-1.892zm15.73 39.58H66.05a1.03 1.03 0 00-1.028 1.032c0 .569.46 1.03 1.028 1.03h1.895v3.106H66.05a1.03 1.03 0 00-1.028 1.031c0 .57.46 1.03 1.028 1.03h1.895v3.107H66.05c-.568 0-1.028.461-1.028 1.03 0 .57.46 1.031 1.028 1.031h1.895v3.106H66.05a1.03 1.03 0 00-1.028 1.031c0 .57.46 1.03 1.028 1.03h1.895v4.917H36.473L46.85 57.528a1.033 1.033 0 00-.148-1.58c-.4-.275-.95-.234-1.305.122l-4.164 4.177H7.784a5.704 5.704 0 01-5.724-5.56 6.078 6.078 0 01.087-.859l.005-.03a6.033 6.033 0 01.244-.927l.038-.107c.025-.068.052-.135.079-.2l.023-.058c.036-.083.072-.164.11-.244l.005-.01a6.052 6.052 0 014.204-3.299l.016-.003a5.53 5.53 0 01.257-.047l.044-.007a6.12 6.12 0 01.236-.03l.066-.008c.076-.008.153-.013.23-.018l.073-.005c.1-.005.202-.008.304-.008a1.03 1.03 0 001.027-1.03v-7.474c0-.57-.46-1.03-1.027-1.03a1.03 1.03 0 00-1.028 1.03v6.508a8.015 8.015 0 00-4.998 2.645V11.094a6.05 6.05 0 014.998-5.958V36.2c0 .57.46 1.03 1.028 1.03a1.03 1.03 0 001.027-1.03V16.276h29.838l-5.68 5.698a1.033 1.033 0 000 1.458 1.025 1.025 0 001.453 0l7.433-7.458h.001l6.725-6.747 4.717 4.733-.554.555-.001.002L32.323 35.3l-4.717-4.732 4.083-4.097a1.033 1.033 0 000-1.458 1.025 1.025 0 00-1.452 0l-4.81 4.826c-.026.026-.05.053-.073.08l-.021.03a1.07 1.07 0 00-.042.059l-.022.036a.953.953 0 00-.076.16l-.009.02-2.001 5.69-1.365 3.878a1.04 1.04 0 00-.04.157H18.36a1.03 1.03 0 00-1.027 1.03c0 .57.46 1.031 1.027 1.031h28.453c.568 0 1.028-.461 1.028-1.03 0-.57-.46-1.031-1.028-1.031H26.4l6.266-2.22.016-.006a1.07 1.07 0 00.072-.03l.028-.013c.024-.012.048-.026.072-.04l.023-.014a1.02 1.02 0 00.073-.051l.017-.014a1.17 1.17 0 00.084-.074l21.142-21.21h8.922v22.02L48.417 53.04a1.033 1.033 0 00.727 1.76 1.023 1.023 0 00.726-.303l18.075-18.133v9.094zM30.443 36.33L27.5 37.372l-1.96-1.967 1.038-2.952 3.865 3.877z" fill="#002B45"/></svg>