<svg width="70" height="70" fill="none" xmlns="http://www.w3.org/2000/svg"><g clip-path="url(#clip0_187_1754)" fill="#002B45"><path d="M68.093 1.053H14.388A1.91 1.91 0 0012.48 2.96v29.343l-1.832-1.832a1.704 1.704 0 00-1.213-.502c-.46 0-.89.178-1.214.502l-3.18 3.18a1.703 1.703 0 00-.502 1.213c0 .46.179.89.502 1.214l7.439 7.438v2.941a1.703 1.703 0 00-.417 1.12c0 .416.148.808.417 1.12v3.2L.5 63.875A1.704 1.704 0 000 65.09c0 .459.178.89.502 1.213l2.142 2.143a1.71 1.71 0 001.214.502c.44 0 .879-.168 1.213-.502l1.275-1.275a1.03 1.03 0 10-1.456-1.456l-1.032 1.032L2.2 65.09 17.09 50.2l1.656 1.658L8.46 62.145a1.03 1.03 0 101.456 1.456l2.566-2.566v4.054a1.91 1.91 0 001.907 1.908h37.354a1.03 1.03 0 000-2.06h-20.69l1.424-1.424.392.392c.323.323.754.501 1.213.501a1.7 1.7 0 001.213-.502l3.18-3.18c.67-.669.67-1.757 0-2.426l-.39-.392L67.94 28.05v36.887h-9.747a1.03 1.03 0 000 2.06h9.899A1.91 1.91 0 0070 65.089V2.96a1.91 1.91 0 00-1.907-1.906zm-49.79 47.449A1.704 1.704 0 0017.088 48a1.7 1.7 0 00-1.213.502l-.344.343-1.268-1.268 2.955-2.955 7.105 7.106-2.954 2.954-1.268-1.268.343-.343a1.718 1.718 0 000-2.427l-2.143-2.142zm9.838 16.435H14.54v-5.96l4.106-4.107 1.51 1.51c.324.325.755.503 1.214.503a1.7 1.7 0 001.213-.502L23.964 55l7.058 7.057-2.88 2.88zm5.941-2.731l-8.662-8.662.603-.603c.323-.324.502-.754.502-1.213 0-.46-.179-.89-.502-1.214l-7.59-7.59a1.704 1.704 0 00-1.214-.502c-.46 0-.89.178-1.214.502l-.602.602-8.662-8.662 2.695-2.695 27.34 27.342-2.694 2.695zm2.547-5.756l-3.002-3.001 9.043-9.043a1.03 1.03 0 10-1.456-1.456l-9.043 9.043-13.41-13.41 4.91-4.91a1.03 1.03 0 00-1.457-1.455l-4.909 4.91-1.476-1.477 16.527-16.528a1.03 1.03 0 10-1.456-1.456l-16.36 16.36V3.112h30.915l-10.47 10.47a1.03 1.03 0 101.457 1.455L48.367 3.112h19.574v22.026L36.628 56.45z"/><path d="M9.395 23.098c-1.874-.584-2.1-.81-2.684-2.684a1.461 1.461 0 00-1.4-1.031 1.46 1.46 0 00-1.402 1.03c-.583 1.875-.81 2.1-2.683 2.684a1.46 1.46 0 00-1.032 1.401c0 .647.415 1.21 1.032 1.402 1.874.583 2.1.809 2.683 2.683a1.46 1.46 0 001.401 1.031 1.46 1.46 0 001.401-1.03c.584-1.875.81-2.1 2.683-2.684a1.46 1.46 0 001.032-1.402 1.46 1.46 0 00-1.031-1.4zm-4.085 3.37c-.457-.952-1.019-1.514-1.97-1.97.951-.458 1.513-1.02 1.97-1.972.458.952 1.02 1.514 1.971 1.971-.952.457-1.514 1.02-1.97 1.971zm46.258-14.56c-2.512-.783-2.852-1.122-3.634-3.635a1.584 1.584 0 00-1.52-1.118c-.7 0-1.311.45-1.52 1.119-.781 2.512-1.12 2.851-3.633 3.634a1.584 1.584 0 00-1.118 1.519c0 .7.45 1.312 1.118 1.52 2.512.782 2.852 1.121 3.634 3.633.208.67.819 1.119 1.52 1.119.7 0 1.31-.45 1.519-1.119.782-2.512 1.122-2.851 3.633-3.633a1.584 1.584 0 001.12-1.52c0-.701-.45-1.311-1.12-1.52zm-5.154 4.773c-.695-1.753-1.5-2.559-3.254-3.254 1.753-.695 2.56-1.502 3.254-3.254.696 1.752 1.502 2.559 3.255 3.254-1.753.695-2.56 1.501-3.255 3.254zm4.639 17.177c-1.43-.445-1.561-.576-2.007-2.006-.18-.58-.71-.97-1.316-.97-.608 0-1.137.39-1.317.97-.445 1.43-.577 1.56-2.006 2.006-.58.18-.97.71-.97 1.317s.39 1.137.97 1.317c1.43.445 1.56.576 2.006 2.006.18.58.71.969 1.317.969s1.136-.39 1.316-.97c.446-1.429.577-1.56 2.006-2.005.58-.18.97-.71.97-1.317s-.39-1.137-.97-1.317zM47.73 36.31a3.094 3.094 0 00-1.136-1.135 3.093 3.093 0 001.136-1.136c.291.492.644.844 1.135 1.136a3.096 3.096 0 00-1.136 1.135zm.908-14.07a1.03 1.03 0 00-1.456 0L32.263 37.158a1.03 1.03 0 101.456 1.456l14.919-14.918a1.03 1.03 0 000-1.456z"/></g><defs><clipPath id="clip0_187_1754"><path fill="#fff" d="M0 0h70v70H0z"/></clipPath></defs></svg>