<svg width="36" height="36" fill="none" xmlns="http://www.w3.org/2000/svg"><g clip-path="url(#clip0_161_1290)"><path d="M18 36c9.941 0 18-8.059 18-18S27.941 0 18 0 0 8.059 0 18s8.059 18 18 18z" fill="#FBF6EF"/><path fill-rule="evenodd" clip-rule="evenodd" d="M8.149 17.81c5.247-2.286 8.746-3.793 10.497-4.521 4.998-2.08 6.037-2.44 6.714-2.453.15-.002.482.034.698.21.32.26.321.823.286 1.196-.271 2.846-1.443 9.753-2.04 12.94-.252 1.35-.749 1.802-1.23 1.846-1.045.096-1.839-.69-2.851-1.354-1.584-1.039-2.48-1.685-4.017-2.699-1.777-1.17-.625-1.815.388-2.866.265-.276 4.87-4.465 4.96-4.845.01-.047.021-.225-.084-.318-.105-.094-.26-.062-.373-.036-.159.036-2.69 1.709-7.592 5.018-.719.493-1.37.734-1.952.721-.643-.014-1.88-.363-2.798-.662-1.128-.366-2.024-.56-1.946-1.182.041-.325.487-.656 1.34-.995z" fill="#002B45"/></g><defs><clipPath id="clip0_161_1290"><path fill="#fff" d="M0 0h36v36H0z"/></clipPath></defs></svg>