<svg width="149" height="801" fill="none" xmlns="http://www.w3.org/2000/svg"><path d="M.639 82.315c0 45.075 33.228 81.646 74.18 81.646 40.953 0 74.181-36.571 74.181-81.646S115.772.67 74.82.67C33.867.67.639 37.24.639 82.315zm127.652-.042c0 34.912-21.473 58.938-53.174 58.938s-53.175-24.026-53.175-58.938c0-34.912 21.474-58.938 53.175-58.938 31.701 0 53.174 24.026 53.174 58.938zM.681 644.504c.975.043 1.95.171 2.925.171H145.82c3.01 0 3.01 0 3.01 3.033 0 6.407-.085 12.815.042 19.222.043 2.093-.636 2.606-2.67 2.606-33.064-.043-66.127-.043-99.19-.043h-2.671c-.043.171-.127.342-.17.513.72.47 1.4 1.025 2.12 1.452 23.526 14.267 47.052 28.534 70.62 42.758 1.653.983 2.374 2.093 2.289 4.058-.17 3.418-.127 6.835 0 10.252.042 1.495-.509 2.307-1.78 3.033-23.95 13.968-47.9 27.979-71.808 41.989-.974.556-1.865 1.239-2.84 1.88.085.213.128.427.212.641.848.042 1.738.128 2.586.128h100.462c2.756 0 2.798 0 2.798 2.819v19.008c0 .769.127 1.538.169 2.307H.639V779.4c.805-.427 1.653-.811 2.416-1.281 27.892-17.77 55.826-35.539 83.718-53.309.72-.47 1.357-.94 2.416-1.709-1.017-.854-1.78-1.666-2.67-2.221-20.983-13.498-41.965-27.039-62.948-40.494-7.63-4.87-15.26-9.697-22.89-14.566v-21.316zM.639 376.826c.254-.382.678-.763.678-1.187.043-7.334 1.104-14.498 4.073-21.238 7.891-17.974 21.467-28.953 40.898-32.09 28.297-4.536 54.77 14.921 59.691 42.984.807 4.536.891 9.242.934 13.905.127 11.996.042 24.035.042 36.032v2.925h2.546c12.303 0 24.606.043 36.909-.042 2.079 0 2.631.636 2.588 2.628-.127 6.444-.042 12.845-.042 19.288 0 2.755 0 2.755-2.843 2.755H3.608c-.975 0-1.951.128-2.927.17C.64 420.913.64 398.869.64 376.826zm83.619 42.052c.042-.806.127-1.441.127-2.035v-44.087c0-.72 0-1.399-.085-2.119-2.587-17.423-19.048-28.911-36.273-25.308-15.697 3.307-24.097 17.211-23.885 29.25.212 13.904.042 27.851.042 41.755v2.544h60.074zM.639 531.237c1.358-.509 2.8-.933 4.116-1.57 34.8-15.782 69.599-31.606 104.398-47.388a9872.752 9872.752 0 0137.261-16.885 63.882 63.882 0 012.377-.976v98.722c-1.825-.933-3.523-1.824-5.178-2.672-4.625-2.419-9.294-4.794-13.877-7.34-.637-.339-1.103-1.485-1.103-2.291-.043-14.339-.043-28.721-.043-43.061v-8.57c-33.569 14.849-66.713 29.528-100.409 44.419 1.104.636 1.655 1.061 2.334 1.315 37.261 16.164 74.564 32.243 111.783 48.449 7.936 3.436 6.578 1.527 6.663 10.012.042 5.728 0 11.455 0 17.182v2.461c-3.565-1.612-6.791-3.012-9.973-4.455-45.197-20.236-90.394-40.473-135.59-60.667-.892-.382-1.826-.551-2.76-.848v-25.837zm0-364.179c8.06 5.259 16.079 10.518 24.097 15.778 16.503 10.9 33.049 21.8 49.51 32.743 1.527 1.018 2.588 1.018 4.073-.085 22.655-16.414 45.394-32.743 68.092-49.115.636-.424 1.272-.848 2.248-1.484.127.933.255 1.527.255 2.078 0 7.55.084 15.142-.043 22.691 0 .976-.721 2.333-1.527 2.927-18.964 13.826-37.928 27.611-57.02 41.225-2.46 1.782-3.478 3.478-3.393 6.532.212 7.762.085 15.566.085 23.327v2.8h2.927c18.794 0 37.631.042 56.425-.043 1.994 0 2.673.509 2.631 2.587a474.365 474.365 0 000 19.086c.042 2.079-.594 2.63-2.631 2.63-47.6-.042-95.159-.042-142.76-.042-.975 0-1.951.127-2.927.169v-24.599c.552.084 1.103.169 1.655.169h61.092c.594 0 1.187-.127 1.909-.169v-2.715c0-8.779-.085-17.517.042-26.296.042-1.951-.679-3.054-2.249-4.072-20.236-13.233-40.43-26.508-60.625-39.784-.594-.381-1.23-.636-1.866-.933v-25.405z" fill="#FBF6EF" fill-opacity=".1"/></svg>