<svg width="174" height="929" fill="none" xmlns="http://www.w3.org/2000/svg"><path d="M.821 94.85c0 52.367 38.603 94.852 86.18 94.852 47.575 0 86.179-42.485 86.179-94.851S134.576 0 87 0C39.424 0 .821 42.485.821 94.85zm148.299-.048c0 40.558-24.946 68.47-61.775 68.47-36.828 0-61.774-27.912-61.774-68.47 0-40.56 24.946-68.471 61.775-68.471 36.828 0 61.774 27.912 61.774 68.47zM.87 747.97c1.133.049 2.266.198 3.398.198h165.218c3.497 0 3.497 0 3.497 3.523 0 7.444-.099 14.888.049 22.332.049 2.431-.739 3.027-3.103 3.027-38.411-.05-76.822-.05-115.233-.05h-3.103c-.05.198-.148.397-.197.596.837.545 1.625 1.19 2.462 1.687 27.331 16.574 54.663 33.149 82.043 49.674 1.92 1.141 2.758 2.431 2.659 4.714-.197 3.97-.148 7.94 0 11.91.049 1.737-.591 2.68-2.068 3.523a46794.195 46794.195 0 00-83.422 48.781c-1.132.646-2.166 1.44-3.299 2.184.099.248.148.496.246.744.985.05 2.02.149 3.004.149h116.711c3.201 0 3.251 0 3.251 3.275v22.083c0 .894.147 1.787.197 2.68H.821v-24.316c.936-.496 1.92-.943 2.807-1.489 32.404-20.644 64.856-41.287 97.26-61.931.837-.546 1.575-1.092 2.807-1.985-1.182-.993-2.069-1.936-3.103-2.581-24.376-15.681-48.753-31.412-73.13-47.044-8.862-5.657-17.726-11.265-26.59-16.922V747.97zM.821 436.996c.296-.443.789-.887.789-1.379.05-8.52 1.281-16.843 4.731-24.673 9.168-20.881 24.94-33.636 47.513-37.281 32.874-5.269 63.629 17.336 69.346 49.938.937 5.269 1.035 10.735 1.085 16.153.147 13.937.049 27.923.049 41.86v3.398h2.957c14.293 0 28.586.05 42.879-.049 2.415 0 3.056.739 3.007 3.053-.148 7.486-.049 14.923-.049 22.408 0 3.201 0 3.201-3.303 3.201H4.271c-1.133 0-2.267.148-3.4.197-.05-25.609-.05-51.217-.05-76.826zm97.144 48.854c.05-.936.148-1.675.148-2.364v-51.218c0-.837 0-1.625-.098-2.462-3.007-20.241-22.13-33.587-42.14-29.401-18.236 3.841-27.995 19.994-27.749 33.981.247 16.153.05 32.355.05 48.509v2.955h69.79zM.821 616.381c1.578-.591 3.254-1.084 4.783-1.824 40.428-18.334 80.856-36.718 121.284-55.053 14.396-6.555 28.841-13.11 43.287-19.616.789-.345 1.627-.69 2.761-1.133v114.69c-2.12-1.085-4.092-2.12-6.015-3.106-5.374-2.809-10.797-5.569-16.122-8.526-.739-.394-1.282-1.725-1.282-2.662-.049-16.658-.049-33.367-.049-50.025v-9.956c-38.998 17.25-77.503 34.303-116.65 51.603 1.282.739 1.923 1.232 2.712 1.528 43.288 18.778 86.625 37.457 129.863 56.285 9.219 3.992 7.642 1.774 7.74 11.631.049 6.654 0 13.308 0 19.961v2.859c-4.141-1.873-7.888-3.499-11.586-5.175a221819.695 221819.695 0 00-157.521-70.48c-1.035-.443-2.12-.64-3.205-.985v-30.016zm0-423.082c9.365 6.11 18.68 12.22 27.995 18.33 19.173 12.663 38.395 25.327 57.518 38.039 1.774 1.183 3.006 1.183 4.731-.098 26.32-19.069 52.737-38.039 79.106-57.059.739-.493 1.478-.985 2.612-1.724.148 1.084.296 1.773.296 2.414 0 8.771.098 17.591-.05 26.361 0 1.133-.837 2.71-1.774 3.4-22.031 16.063-44.062 32.077-66.241 47.894-2.859 2.069-4.042 4.04-3.943 7.588.246 9.017.098 18.083.098 27.1v3.252h3.401c21.834 0 43.717.05 65.551-.049 2.317 0 3.106.591 3.056 3.006a553.706 553.706 0 000 22.173c.05 2.414-.69 3.055-3.056 3.055-55.299-.05-110.55-.05-165.85-.05-1.133 0-2.267.148-3.4.197V308.55c.64.098 1.281.197 1.922.197h70.973c.69 0 1.38-.148 2.218-.197v-3.154c0-10.199-.099-20.35.049-30.549.05-2.267-.789-3.548-2.612-4.73-23.51-15.374-46.97-30.796-70.431-46.219-.69-.443-1.43-.739-2.169-1.084v-29.515z" fill="#FBF6EF" fill-opacity=".1"/></svg>