<svg width="188" height="1012" fill="none" xmlns="http://www.w3.org/2000/svg"><path d="M187.758 908.675c0-57.045-42.052-103.326-93.879-103.326-51.826 0-93.878 46.281-93.878 103.326C0 965.719 42.053 1012 93.879 1012c51.827 0 93.879-46.281 93.879-103.325zm-161.549.053c0-44.182 27.176-74.588 67.294-74.588 40.119 0 67.294 30.406 67.294 74.588 0 44.183-27.175 74.589-67.294 74.589-40.118 0-67.294-30.406-67.294-74.589zm161.495-711.524c-1.234-.054-2.468-.216-3.701-.216H4.023c-3.808 0-3.808 0-3.808-3.838 0-8.109.107-16.218-.054-24.327-.053-2.648.805-3.297 3.38-3.297 41.843.054 83.686.054 125.529.054h3.38c.054-.216.161-.433.214-.649-.911-.594-1.77-1.297-2.682-1.838-29.773-18.055-59.546-36.111-89.372-54.112-2.092-1.243-3.004-2.649-2.897-5.136.215-4.324.16-8.649 0-12.974-.054-1.891.644-2.919 2.253-3.838a50151.54 50151.54 0 0090.875-53.139c1.233-.703 2.36-1.567 3.594-2.378-.108-.27-.161-.54-.268-.811-1.073-.054-2.2-.162-3.273-.162H3.756c-3.487 0-3.54 0-3.54-3.568V2.919C.215 1.946.053.973 0-.001h187.757v26.49c-1.019.54-2.092 1.026-3.058 1.621-35.298 22.488-70.65 44.976-105.949 67.465-.912.594-1.716 1.189-3.057 2.162 1.287 1.081 2.253 2.108 3.38 2.811 26.553 17.082 53.108 34.219 79.662 51.247 9.656 6.163 19.312 12.271 28.968 18.434v26.975zm.054 338.757c-.322.483-.859.965-.859 1.502-.054 9.281-1.396 18.347-5.154 26.877-9.987 22.747-27.168 36.642-51.758 40.612-35.811 5.74-69.314-18.884-75.542-54.399-1.02-5.74-1.127-11.695-1.181-17.596-.161-15.183-.054-30.419-.054-45.601v-3.702h-3.22c-15.57 0-31.14-.053-46.71.054-2.631 0-3.33-.805-3.276-3.326.161-8.155.054-16.255.054-24.41 0-3.487 0-3.487 3.597-3.487H184c1.234 0 2.469-.161 3.704-.214.054 27.896.054 55.793.054 83.69zM81.934 482.742c-.053 1.02-.16 1.824-.16 2.575v55.794c0 .912 0 1.77.107 2.682 3.275 22.049 24.107 36.588 45.905 32.028 19.865-4.185 30.496-21.781 30.227-37.017-.268-17.596-.053-35.246-.053-52.843v-3.219H81.934zm105.824-142.193c-1.719.645-3.545 1.181-5.21 1.987-44.04 19.972-88.08 39.999-132.12 59.972a12680.208 12680.208 0 01-47.155 21.368 79.78 79.78 0 01-3.007 1.235V300.174c2.31 1.182 4.458 2.309 6.552 3.383 5.854 3.06 11.762 6.067 17.562 9.288.806.43 1.397 1.879 1.397 2.9.053 18.147.053 36.348.053 54.495v10.845c42.483-18.791 84.428-37.368 127.072-56.213-1.397-.806-2.095-1.342-2.954-1.665-47.155-20.455-94.364-40.804-141.465-61.313-10.043-4.349-8.325-1.933-8.432-12.671-.054-7.248 0-14.497 0-21.745v-3.114c4.511 2.04 8.593 3.812 12.621 5.638 57.198 25.61 114.397 51.22 171.595 76.776 1.128.484 2.309.698 3.491 1.074v32.697zm0 460.881a14972.904 14972.904 0 01-30.496-19.967c-20.886-13.795-41.825-27.59-62.657-41.438-1.933-1.288-3.275-1.288-5.154.108-28.67 20.772-57.449 41.437-86.173 62.156-.805.537-1.61 1.073-2.845 1.878-.161-1.18-.323-1.932-.323-2.63 0-9.554-.107-19.162.054-28.716 0-1.235.913-2.952 1.933-3.704 24-17.498 48-34.942 72.16-52.172 3.114-2.255 4.402-4.402 4.295-8.266-.269-9.823-.108-19.699-.108-29.522v-3.543H74.74c-23.785 0-47.623-.053-71.408.054-2.524 0-3.383-.644-3.329-3.274a604.01 604.01 0 000-24.154c-.054-2.63.752-3.328 3.329-3.328 60.24.054 120.427.054 180.667.054 1.235 0 2.47-.161 3.705-.215v31.132c-.698-.108-1.396-.215-2.094-.215h-77.314c-.751 0-1.503.161-2.416.215v3.435c0 11.111.108 22.168-.053 33.279-.054 2.469.859 3.865 2.845 5.153 25.61 16.747 51.167 33.547 76.723 50.348.752.483 1.557.805 2.363 1.18v32.152z" fill="#F9F7F7"/></svg>